# xmcd
#
# Track frame offsets:
#	150
#	86522
#	125206
#	157929
#	188479
#
# Disc length: 3148 seconds
#
# Revision: 0
# Processed by: cddbd v1.5.2PL0 Copyright (c) Steve Scherf et al.
# Submitted via: EasyCDDAExtractor 10.0.3.1
#
DISCID=350c4a05
DTITLE=Grateful Dead - 12-31-81 Oakland Arena [CD3]
DYEAR=1981
DGENRE=Classic Rock
TTITLE0=Drums - Space
TTITLE1=That's It For The Other One
TTITLE2=Not Fade Away
TTITLE3=Goin' Down The Road Feelin' Bad
TTITLE4=Morning Dew
EXTD=
EXTT0=
EXTT1=
EXTT2=
EXTT3=
EXTT4=
PLAYORDER=
